<?xml version="1.0" encoding="UTF-8" standalone="no" ?>
<!DOCTYPE svg PUBLIC "-//W3C//DTD SVG 1.1//EN" "http://www.w3.org/Graphics/SVG/1.1/DTD/svg11.dtd">
<svg xmlns="http://www.w3.org/2000/svg" xmlns:xlink="http://www.w3.org/1999/xlink" version="1.1" width="1080" height="1080" viewBox="0 0 1080 1080" xml:space="preserve">
<desc>Created with Fabric.js 5.2.4</desc>
<defs>
</defs>
<rect x="0" y="0" width="100%" height="100%" fill="transparent"></rect>
<g transform="matrix(1 0 0 1 540 540)" id="97c67019-366e-430a-9558-23ed5de9a4c9"  >
<rect style="stroke: none; stroke-width: 1; stroke-dasharray: none; stroke-linecap: butt; stroke-dashoffset: 0; stroke-linejoin: miter; stroke-miterlimit: 4; fill: rgb(255,255,255); fill-rule: nonzero; opacity: 1; visibility: hidden;" vector-effect="non-scaling-stroke"  x="-540" y="-540" rx="0" ry="0" width="1080" height="1080" />
</g>
<g transform="matrix(1 0 0 1 540 540)" id="a27396c1-3203-4c1d-9297-65c7c6f72538"  >
</g>
<g transform="matrix(1.13 0 0 1.13 1522.05 305.56)"  >
<path style="stroke: none; stroke-width: 1; stroke-dasharray: none; stroke-linecap: butt; stroke-dashoffset: 0; stroke-linejoin: miter; stroke-miterlimit: 4; fill: rgb(227,227,227); fill-rule: nonzero; opacity: 1;"  transform=" translate(-480, 480)" d="M 280 -120 Q 247 -120 223.5 -143.5 Q 200 -167 200 -200 L 200 -720 L 160 -720 L 160 -800 L 360 -800 L 360 -840 L 600 -840 L 600 -800 L 800 -800 L 800 -720 L 760 -720 L 760 -200 Q 760 -167 736.5 -143.5 Q 713 -120 680 -120 L 280 -120 Z M 680 -720 L 280 -720 L 280 -200 L 680 -200 L 680 -720 Z M 360 -280 L 440 -280 L 440 -640 L 360 -640 L 360 -280 Z M 520 -280 L 600 -280 L 600 -640 L 520 -640 L 520 -280 Z M 280 -720 L 280 -200 L 280 -720 Z" stroke-linecap="round" />
</g>
<g transform="matrix(NaN NaN NaN NaN 0 0)"  >
<g style=""   >
</g>
</g>
<g transform="matrix(1.13 0 0 1.13 540 540)"  >
<path style="stroke: none; stroke-width: 1; stroke-dasharray: none; stroke-linecap: butt; stroke-dashoffset: 0; stroke-linejoin: miter; stroke-miterlimit: 4; fill: rgb(227,227,227); fill-rule: nonzero; opacity: 1;"  transform=" translate(-480, 480)" d="M 280 -120 Q 247 -120 223.5 -143.5 Q 200 -167 200 -200 L 200 -720 L 160 -720 L 160 -800 L 360 -800 L 360 -840 L 600 -840 L 600 -800 L 800 -800 L 800 -720 L 760 -720 L 760 -200 Q 760 -167 736.5 -143.5 Q 713 -120 680 -120 L 280 -120 Z M 680 -720 L 280 -720 L 280 -200 L 680 -200 L 680 -720 Z M 360 -280 L 440 -280 L 440 -640 L 360 -640 L 360 -280 Z M 520 -280 L 600 -280 L 600 -640 L 520 -640 L 520 -280 Z M 280 -720 L 280 -200 L 280 -720 Z" stroke-linecap="round" />
</g>
<g transform="matrix(NaN NaN NaN NaN 0 0)"  >
<g style=""   >
</g>
</g>
</svg>